# xmcd
#
# Track frame offsets:
#	182
#	22072
#	42200
#
# Disc length: 895 seconds
#
# Revision: 0
# Processed by: cddbd v1.4PL0 Copyright (c) Steve Scherf et al.
# Submitted via: EasyCDDAExtractor 4.6.0.1
#
DISCID=1e037d03
DTITLE=Michel Jonasz - Groove baby groove
DYEAR=1992
DGENRE=Soul
TTITLE0=Groove baby groove (version courte)
TTITLE1=Je descendrai la rivière
TTITLE2=Groove baby groove (version intégrale)
EXTD=
EXTT0=
EXTT1=
EXTT2=
PLAYORDER=
